<?xml version="1.0" encoding="UTF-8"?>
<svg id="Layer_1" data-name="Layer 1" xmlns="http://www.w3.org/2000/svg" viewBox="0 0 1023 1023">
  <defs>
    <style>
      .cls-1 {
        fill: #00b8a9;
      }

      .cls-2 {
        fill: #d2d3d4;
      }

      .cls-3 {
        fill: #bcbec0;
      }
    </style>
  </defs>
  <path class="cls-2" d="M483.07,516.93l-11.3,223.47c0,22.42,18,40.6,40.21,40.6s40.21-18.18,40.21-40.6l-11.96-223.47"/>
  <g>
    <polygon class="cls-1" points="712.47 306.85 755.37 338.26 755.37 643.87 712.47 676.81 664.98 642.34 664.98 337.49 712.47 306.85"/>
    <polygon class="cls-1" points="776.43 366.98 776.43 616.68 826.22 585.28 826.22 398.38 776.43 366.98"/>
    <polyline class="cls-1" points="354.37 467.33 666.88 467.33 666.88 519.41 481.09 519.41 354.37 519.41"/>
    <polyline class="cls-1" points="871.79 467.33 825.84 467.33 825.84 519.41 871.79 519.41"/>
    <path class="cls-1" d="M871.69,519.41c7.85-19.45,9.6-32.69,0-52.09"/>
    <polygon class="cls-1" points="311.49 308.39 268.6 339.8 268.6 645.41 311.49 678.35 358.98 643.88 358.98 339.03 311.49 308.39"/>
    <polygon class="cls-1" points="247.54 368.52 247.54 618.22 197.75 586.82 197.75 399.93 247.54 368.52"/>
    <polyline class="cls-1" points="152.18 468.87 198.13 468.87 198.13 520.96 152.18 520.96"/>
    <path class="cls-1" d="M152.28,520.96c-7.85-19.45-9.6-32.69,0-52.09"/>
  </g>
  <g>
    <path class="cls-2" d="M485.67,465.66c0-3.15,0-6.3.01-9.44-6.1-7.87-13.1-16.2-21.11-24.75-8.76-9.35-17.41-17.57-25.62-24.75h145.44c-7.34,6.36-15.02,13.56-22.8,21.69-9.24,9.65-17.12,19.04-23.83,27.81l-.02,11.12c-17.36-.56-34.72-1.11-52.08-1.67Z"/>
    <polyline class="cls-2" points="499.56 406.83 499.56 379.99 499.51 267.03 503.52 267.03 503.52 263.48 519.53 263.48 519.53 267.03 523.48 267.03 523.54 385.28 523.54 407.73"/>
    <path class="cls-2" d="M552.11,372.31l-11.1,9.41c-1.77,1.5-4.67,1.51-6.45.01l-11.21-9.42v34.57h28.81"/>
    <polyline class="cls-2" points="499.66 391.67 485.34 403.81 470.9 391.67 470.9 426.24 499.7 426.24"/>
    <path class="cls-2" d="M499.66,372.31l-11.1,9.41c-1.77,1.5-4.67,1.51-6.45.01l-11.21-9.42v34.57h28.81"/>
    <polyline class="cls-2" points="551.96 271.68 551.96 263.48 552.11 263.48 577.32 263.48 584.39 406.69 551.96 407.33"/>
    <path class="cls-2" d="M446.03,264.07c4.23-4.91,8.45-9.82,12.68-14.72,4.23,4.91,8.45,9.82,12.68,14.72"/>
    <path class="cls-2" d="M551.97,264.07c4.23-4.91,8.45-9.82,12.68-14.72,4.23,4.91,8.45,9.82,12.68,14.72"/>
    <path class="cls-2" d="M523.48,267.49v-3.42c-3.83-4.91-7.66-9.82-11.49-14.72-4.16,4.91-8.31,9.82-12.47,14.72,0,1.14,0,2.28,0,3.42"/>
    <polyline class="cls-2" points="471.39 271.68 471.39 263.48 471.24 263.48 446.03 263.48 438.96 406.78 471.39 407.42"/>
    <polygon class="cls-2" points="584.4 406.71 584.38 406.38 578.35 406.71 584.4 406.71"/>
    <polygon class="cls-2" points="584.36 406 578.35 407.02 583.46 407.6 584.4 406.71 584.36 406"/>
    <polygon class="cls-2" points="438.96 406.69 438.96 406.71 439.94 406.72 438.98 406.39 438.96 406.69"/>
  </g>
  <polygon class="cls-2" points="485.75 467.33 485.67 465.61 537.75 467.33 485.75 467.33"/>
  <polyline class="cls-3" points="485.67 465.66 485.67 467.33 486.39 467.33"/>
  <line class="cls-2" x1="472.06" y1="373.28" x2="485.67" y2="386.2"/>
  <path class="cls-2" d="M501.18,377.85l-9.03,7.56c-2.85,2.39-6.19,4.54-7.49,8.17s-.25,7.08,2.27,9.77c.93.99,6.42,3.58,6.6,4.45v-3.99l-.35.95,5.24-5.24c-2.77.6-6.78-.19-9.62-.33-3.51-.17-7.38-.09-10.82-.82l1.16,1.09c-.35-.73-.66-1.47-.95-2.23-.54-1.35-1.03-2.72-1.47-4.11-1.08-3.33-1.88-6.72-2.53-10.16-1.78-9.48-16.24-5.46-14.46,3.99,1.3,6.9,3.16,15.06,6.97,21.06,4.1,6.44,13.44,5.68,20.13,6.07s18.02,2.81,20.82-5.34c1.11-3.22.41-6.6-1.47-9.41-1.02-1.52-2.31-2.7-3.78-3.76-.89-.64-3.87-1.63-4.37-2.46l.76,5.78c-.55,2.09.7-.14,1.73-1l3.76-3.15,7.52-6.3c7.41-6.21-3.25-16.77-10.61-10.61h0Z"/>
  <path class="cls-2" d="M465.69,386.13c9.65,0,9.67-15,0-15s-9.67,15,0,15h0Z"/>
  <path class="cls-2" d="M464.15,383.32c9.65,0,9.67-15,0-15s-9.67,15,0,15h0Z"/>
  <path class="cls-2" d="M456.85,379.92c.58,16.2,14.27,26.46,29.29,28.9,7.04,1.15,15.83,2.04,21.28-3.67,2.35-2.46,3.56-5.58,4.08-8.9.29-1.86.24-6.62.8-7.26,6.33-7.24-4.24-17.89-10.61-10.61-3.32,3.79-4.27,7.74-4.67,12.65-.06.77-.3,3.59-.2,3.51-.78.67-4.51.02-5.34-.06-8.21-.81-19.28-4.78-19.63-14.57s-15.34-9.67-15,0h0Z"/>
  <path class="cls-2" d="M504.13,375.71c-2.07,5.48.67,11.88,5.35,15.02,3.19,2.14,7.23,2.49,10.65.69,1.9-1,3.44-3.2,3.97-5.23.83-3.17-.23-5.64-2.17-8.11-1.1-1.41-3.61-2.2-5.3-2.2-1.84,0-4.04.82-5.3,2.2s-2.29,3.31-2.2,5.3c.09,2.12.9,3.65,2.2,5.3l.18.23-1.93-3.31,1.47-5.97,3.31-1.93c.75-.28,2.03-.06,2.75.23.66.3.74.32.25.04l.94.74c-.2,0-1.09-1.25-.16-.04s-.06-.04-.01-.16c.02-.06.55,1.86.34.77-.05-.26-.29-1.52-.07-.08.08.76.12.85.1.27l-.19,1.27c-.11-.15.26-.92.31-1.05,1.39-3.68-1.54-8.38-5.24-9.23-4.27-.97-7.74,1.3-9.23,5.24h0Z"/>
  <path class="cls-2" d="M516.75,389.88c7.16,4.44,14.39,9.86,22.81,11.57,8.05,1.63,19.14-.24,20.79-9.9s-12.85-13.5-14.46-3.99c-.04.22.74-.6.44-.51-1,.28-2.53-.05-3.55-.24-2.28-.43-4.39-1.37-6.41-2.49-4.12-2.27-8.05-4.92-12.04-7.39-8.23-5.1-15.77,7.87-7.57,12.95h0Z"/>
  <path class="cls-2" d="M552.74,375.46c-5.32,5.11-10.08,9.8-16.72,13.23-2.94,1.52-6,2.69-9.19,3.59-2.42.68-6.95,2.35-9.42,1.88l4.48,3.45-.33-.58,1.02,3.79c-.09-1.96-.31-6.01,1.55-7.26l-9.09-1.17c4.79,6.18,10.47,11.27,16.92,15.67,7.99,5.46,15.5-7.53,7.57-12.95-5.37-3.67-9.91-8.2-13.88-13.33-1.9-2.45-6.6-2.85-9.09-1.17-6.69,4.51-9.5,12.25-8.98,20.21.63,9.73,11,8.42,17.86,7.17,15.43-2.8,26.89-11.33,37.9-21.92,6.97-6.7-3.64-17.3-10.61-10.61h0Z"/>
  <path class="cls-2" d="M570.88,396.41c-11.1-1.36-22.24-1.96-33.42-1.8-9.64.14-9.67,14.99,0,15,5.64,0,11.28,0,16.93.01,4.05,0,7.5-3.45,7.5-7.5,0-4.48-3.46-6.99-7.5-7.5-6.74-.85-13.47-.14-19.93,1.96-8.53,2.77-6.12,13.67,1.99,14.73,5.73.75,11.46.94,17.21.36,4.75-.48,10.55-.95,12.72-5.97,1.71-3.97.8-10.11-4.48-11.02-8.77-1.5-18.01-2.48-25.57,3.2s-9.73,18.11,1.96,20.3c18.58,3.49,28.34-19.03,31.68-33.25,1.6-6.81-7.37-13.29-12.54-7.3s-9.96,11.55-14.93,17.32c-2.81,3.26-3.23,9.68,1.52,11.78,7.15,3.16,11.67-.64,15.53-6.52s7.17-12.18,9.98-18.69c1.62-3.75,1.08-8-2.69-10.26-3.2-1.92-8.59-.99-10.26,2.69-4.05,8.95-10.84,15.61-17.84,22.31s3.54,17.16,10.61,10.61c8.49-7.88,15.51-17.21,20.68-27.57,2.26-4.53.29-9.36-4.48-11.02-7.96-2.76-12.97,7.09-16.71,12.3-4.79,6.69-9.24,13.6-13.42,20.68-3.52,5.96,2.26,12.25,8.47,11.02,5.54-1.1,8.5-6.86,11.33-11.23,3.21-4.96,6.07-10.12,8.67-15.43,4.23-8.61-7.81-15.85-12.95-7.57-4.76,7.66-10.63,14.23-17.56,20l10.61,10.61c6.84-7.3,13.08-15.11,18.75-23.35-4.32-2.52-8.63-5.05-12.95-7.57-5.95,9.26-11.93,18.42-19.72,26.27,4.18,1.1,8.36,2.21,12.54,3.31-3.48-8.91-10.55-18.07-20.47-20.07-12.8-2.58-17,11.34-16.92,21.39l12.8-5.3c-5.29-6.64-15.52-7.57-23.32-8.68-4.71-.67-9.43-1.18-14.16-1.71-2.45-.28-4.93-.48-7.36-.89-1.75-.3-3.19-1.52-2.42.55-2.73-7.33-15.46-7.06-14.73,1.99.94,11.65,15.43,16.07,25.07,18.74,11.23,3.12,22.69,3.47,34.18,1.87,4-.56,6.23-5.69,5.24-9.23-1.21-4.32-5.18-5.8-9.23-5.24-7.29,1.02-14.91.69-22.09-.86-3.58-.77-7.13-1.79-10.54-3.12-2.29-.89-7.44-2.43-8.54-4.65l1.02,3.79-.1-1.3-14.73,1.99c3.74,10.02,14.1,10.2,23.3,11.24,5.26.59,10.53,1.1,15.75,2,3.86.67,9.46.85,12.06,4.1,4.19,5.26,12.85.73,12.8-5.3-.01-1.69-.16-6.84,1.47-7.62l-3.79,1.02c4.47-.51,8.79,5.54,10.24,9.26,1.99,5.08,8.24,7.63,12.54,3.31,8.67-8.72,15.45-19,22.06-29.3,5.27-8.2-7.54-15.44-12.95-7.57-4.96,7.2-10.42,13.93-16.4,20.31-6.71,7.16,3.27,16.71,10.61,10.61,7.87-6.55,14.5-14.34,19.91-23.04-4.32-2.52-8.63-5.05-12.95-7.57-1.95,3.98-4.04,7.88-6.33,11.67-1.07,1.77-2.17,3.52-3.31,5.24-.65.98-1.32,1.96-1.99,2.93-1.02,1.25-.82,1.22.6-.07l8.47,11.02c2.94-4.98,6.01-9.89,9.25-14.68,1.53-2.27,3.1-4.52,4.71-6.74,1.11-1.54,3.22-5.19,4.29-5.68l-5.78.76.73.25-4.48-11.02c-4.65,9.33-10.69,17.44-18.33,24.54l10.61,10.61c7.83-7.5,15.65-15.34,20.18-25.35-4.32-2.52-8.63-5.05-12.95-7.57-1.59,3.67-3.3,7.27-5.23,10.78-.89,1.62-1.81,3.21-2.78,4.79-.41.67-3.21,4.27-1.85,3.9l5.78.76-.92-.4,1.52,11.78c4.98-5.77,9.96-11.55,14.93-17.32l-12.54-7.3c-1.14,4.86-2.41,9.76-4.84,14.15-1,1.81-6.47,10.11-9.45,8.32l3.45,4.48-.24-1.16v3.99c1.35-4.06,10.88-2.02,13.48-1.58l-4.48-11.02c2.47-1.42,2.85-1.94,1.14-1.57-.93.13-1.87.22-2.82.28-1.59.12-3.19.18-4.79.19-3.53.02-7.02-.26-10.51-.72.66,4.91,1.33,9.82,1.99,14.73,5.32-1.73,10.4-2.12,15.95-1.42v-15c-5.64,0-11.28,0-16.93-.01v15c11.18-.16,22.32.44,33.42,1.8,4.03.49,7.5-3.8,7.5-7.5,0-4.46-3.46-7-7.5-7.5h0Z"/>
  <path class="cls-2" d="M556.07,357.44c-.23,10.11-.45,20.22-.68,30.33h15c-.04-4.61.01-9.22.18-13.82.13-3.55-.35-8.21,1.08-11.57-4.66-1.26-9.32-2.52-13.98-3.79.55,6.79.45,13.51-.32,20.27-.46,4.03,3.77,7.5,7.5,7.5,4.43,0,7.04-3.46,7.5-7.5.77-6.76.87-13.49.32-20.27s-10.77-11.34-13.98-3.79c-4.27,10.06-3.39,22.21-3.3,32.96.07,9.66,14.78,9.65,15,0s.45-20.22.68-30.33-14.78-9.65-15,0h0Z"/>
</svg>